<?xml version="1.0" standalone="no"?>
<!DOCTYPE svg PUBLIC "-//W3C//DTD SVG 20010904//EN"
 "http://www.w3.org/TR/2001/REC-SVG-20010904/DTD/svg10.dtd">
<svg version="1.0" xmlns="http://www.w3.org/2000/svg"
 width="326.000000pt" height="326.000000pt" viewBox="0 0 326.000000 326.000000"
 preserveAspectRatio="xMidYMid meet">
<metadata>
Created by potrace 1.11, written by Peter Selinger 2001-2013
</metadata>
<g transform="translate(0.000000,326.000000) scale(0.100000,-0.100000)"
fill="#000000" stroke="none">
<path d="M2667 3254 c-1 -1 -29 -4 -62 -8 -33 -3 -71 -8 -85 -11 -14 -3 -41
-8 -60 -11 -72 -11 -216 -53 -277 -80 -17 -8 -34 -14 -37 -14 -24 0 -323 -163
-370 -201 -6 -5 -36 -28 -66 -51 -173 -134 -354 -324 -480 -506 -42 -62 -48
-67 -100 -79 -30 -7 -62 -15 -70 -17 -19 -5 -109 -26 -133 -31 -10 -2 -32 -9
-50 -14 -18 -6 -43 -13 -58 -15 -22 -5 -46 -47 -189 -331 -89 -179 -160 -328
-156 -332 3 -3 6 -1 6 6 0 7 10 11 23 10 12 -2 27 -1 32 3 18 11 128 37 137
32 4 -3 8 0 8 5 0 6 3 10 8 10 4 -1 27 2 52 7 25 4 48 7 52 6 5 -1 8 2 8 6 0
7 29 13 78 16 12 0 22 4 22 9 0 4 4 7 10 7 5 0 7 -8 4 -17 -3 -10 1 -7 9 6 11
18 16 21 22 10 5 -7 4 -14 -3 -17 -7 -2 -12 -8 -12 -14 0 -6 6 -5 15 2 9 7 14
19 11 27 -3 7 -2 13 2 14 4 0 15 2 25 4 13 3 16 -2 13 -21 -3 -13 0 -24 5 -24
5 0 9 5 9 11 0 5 6 7 13 3 9 -6 9 -4 -1 7 -6 7 -12 20 -12 28 0 11 6 8 22 -8
l21 -24 -23 -17 c-13 -10 -31 -16 -39 -13 -14 4 -14 3 -1 -5 9 -7 18 -7 26 -1
6 5 20 7 30 3 14 -4 15 -3 5 4 -10 7 -10 11 -1 17 13 8 62 -33 54 -46 -3 -5 2
-9 10 -9 9 0 16 -4 16 -10 0 -5 7 -10 15 -10 8 0 15 -4 15 -9 0 -11 -62 10
-72 24 -5 6 -11 5 -17 -4 -6 -9 -10 -10 -16 -2 -5 9 -10 9 -20 1 -10 -8 -16
-7 -24 7 -10 17 -10 17 -11 1 0 -21 -11 -23 -29 -5 -10 10 -11 8 -5 -6 3 -10
3 -17 -2 -16 -5 1 -17 -1 -27 -6 -27 -11 -42 8 -22 29 9 9 12 16 6 16 -15 0
-33 -37 -21 -45 14 -9 2 -31 -26 -43 -13 -7 -24 -19 -24 -28 0 -10 -5 -14 -16
-10 -8 3 -12 2 -9 -4 7 -11 -19 -42 -28 -34 -3 3 -4 -1 -3 -8 2 -20 -107 -177
-118 -171 -6 4 -8 3 -4 -2 8 -8 -18 -65 -30 -65 -4 0 -13 -12 -19 -27 -7 -16
-58 -98 -113 -183 -56 -85 -104 -162 -108 -170 -3 -8 -10 -19 -14 -25 -8 -9
-52 -84 -141 -237 -15 -27 -23 -48 -17 -48 5 0 10 5 10 10 0 6 7 10 15 10 8 0
15 4 15 8 0 5 11 14 24 20 25 11 203 124 222 141 7 5 15 7 18 4 3 -4 6 -1 6 6
0 7 4 10 9 7 5 -3 11 1 15 9 3 8 10 15 16 15 6 0 35 18 65 40 30 22 57 40 61
40 3 0 23 13 44 30 20 16 40 26 44 23 11 -11 36 -12 36 -1 0 6 -7 8 -15 4 -8
-3 -15 -1 -15 4 0 6 7 10 15 10 8 0 15 5 15 11 0 5 4 8 9 5 5 -4 11 -1 13 4 2
7 12 8 26 3 13 -5 22 -13 20 -18 -2 -6 8 -11 22 -12 24 -2 24 -2 2 5 -13 4
-23 11 -22 17 1 5 -7 12 -17 16 -16 6 -15 8 10 19 15 7 27 17 27 21 0 5 8 6
18 2 9 -3 14 -2 10 2 -8 8 53 55 71 55 6 0 11 4 11 9 0 5 12 16 26 26 15 9 23
12 20 6 -4 -6 -2 -11 3 -11 6 0 11 7 11 16 0 10 6 14 14 11 7 -3 19 0 26 6 10
9 12 8 7 -5 -4 -10 -2 -18 3 -18 11 0 13 23 3 33 -3 4 -12 2 -20 -4 -10 -9
-13 -8 -13 0 0 7 14 17 30 22 17 6 30 15 30 19 0 18 33 20 47 3 13 -16 13 -15
2 6 -10 20 -8 27 8 40 11 9 27 33 37 54 9 20 22 37 29 37 8 0 8 3 2 8 -12 8
-14 112 -2 105 4 -2 4 -9 1 -15 -4 -7 -2 -8 4 -4 16 10 15 12 -10 36 -12 11
-18 20 -14 20 5 0 0 12 -9 28 l-18 27 22 -19 c12 -11 19 -26 16 -33 -3 -8 0
-11 6 -7 13 7 61 -35 53 -47 -3 -5 0 -9 6 -9 6 0 17 -6 24 -13 14 -14 17 -47
4 -47 -4 0 -8 -5 -8 -10 0 -6 8 -5 20 2 14 9 16 14 7 20 -9 6 -9 8 0 8 21 0
25 -21 7 -36 -11 -9 -14 -13 -7 -9 8 4 10 -2 7 -17 -3 -13 -7 -34 -10 -47 -3
-13 -9 -32 -15 -43 -5 -10 -7 -18 -3 -18 4 0 -1 -9 -10 -19 -12 -13 -27 -18
-49 -16 -23 3 -27 2 -16 -5 17 -10 37 -9 57 3 17 11 11 -25 -8 -49 -8 -10 -10
-15 -3 -11 7 5 9 0 6 -13 -3 -11 -10 -17 -17 -13 -8 4 -7 2 1 -7 7 -8 8 -20 3
-34 -5 -11 -11 -34 -15 -49 -3 -18 -10 -25 -18 -21 -9 5 -9 4 0 -6 7 -8 9 -20
3 -35 -5 -13 -6 -26 -3 -29 4 -3 2 -6 -3 -6 -5 0 -11 -14 -12 -32 -2 -17 -8
-38 -15 -46 -10 -13 -9 -14 9 -4 16 8 24 8 33 -1 10 -9 11 -8 6 5 -6 15 5 23
40 30 6 1 16 8 23 15 8 7 18 11 23 8 5 -4 9 -2 9 3 0 10 56 37 63 31 2 -2 12
4 22 14 10 10 26 16 36 14 10 -3 17 0 16 5 -1 6 4 13 12 16 9 3 11 0 7 -9 -4
-8 1 -4 10 8 l16 23 30 -21 c16 -12 32 -19 35 -15 3 3 -6 11 -21 17 -30 14
-35 30 -7 22 10 -3 22 0 25 6 5 7 0 9 -11 5 -15 -5 -15 -4 -3 4 10 8 18 8 27
0 8 -6 16 -8 20 -4 3 3 1 6 -5 6 -7 0 -12 5 -12 11 0 5 4 8 9 5 5 -4 11 -3 13
1 5 13 68 43 89 43 11 0 17 5 14 10 -3 6 1 10 9 10 9 0 16 6 16 13 0 9 2 9 9
-1 7 -11 9 -11 14 2 7 18 37 22 37 5 0 -5 -5 -7 -12 -3 -7 4 -8 3 -4 -5 12
-18 28 -2 20 21 -3 11 -2 18 3 15 12 -8 46 20 38 32 -3 6 -2 11 4 11 6 0 8 7
5 15 -5 13 9 20 37 17 3 -1 6 6 6 13 0 11 -4 12 -14 3 -7 -6 -16 -9 -18 -6 -7
7 16 72 29 80 7 5 7 8 -2 8 -7 0 -10 5 -7 10 4 6 9 22 11 37 6 34 13 45 24 38
5 -3 12 -1 15 5 4 6 1 9 -6 8 -7 -2 -15 5 -17 15 -2 9 2 17 8 17 6 0 8 -5 4
-12 -4 -7 -3 -8 5 -4 8 5 9 12 2 20 -5 6 -8 21 -6 31 2 11 4 24 4 29 1 6 6 5
13 -2 7 -7 16 -12 21 -12 5 0 -1 9 -14 20 -14 11 -18 19 -11 20 7 0 10 4 7 10
-3 5 15 22 41 37 25 16 51 33 58 38 6 6 34 26 61 45 28 19 55 41 61 48 5 8 18
12 28 10 11 -1 21 4 23 12 4 12 3 12 -5 1 -7 -9 -12 -10 -16 -2 -4 6 -4 11 1
11 4 0 27 18 51 40 23 21 42 36 42 33 0 -4 14 12 31 35 17 23 35 40 40 36 5
-3 9 0 9 6 0 6 5 8 12 4 8 -5 9 -2 5 10 -5 12 0 19 16 26 12 5 18 9 14 9 -7 1
54 83 102 136 10 11 39 53 65 93 28 43 51 70 58 66 7 -4 8 -3 4 4 -9 14 22 75
34 67 5 -3 12 0 16 6 4 8 3 9 -4 5 -19 -11 -15 1 28 86 22 44 40 86 40 93 0 7
4 15 9 17 6 2 12 17 14 33 2 17 9 29 14 28 5 -1 9 8 10 20 1 46 3 58 11 54 4
-3 8 6 9 19 4 45 6 54 14 54 4 0 5 8 2 19 -3 10 0 22 6 25 5 4 7 14 4 23 -4
10 -2 14 5 9 6 -3 14 -2 17 4 4 6 3 10 -2 9 -20 -3 -25 2 -13 16 7 8 9 15 5
15 -4 0 -1 8 6 17 12 14 12 16 0 8 -10 -6 -12 -4 -6 6 9 13 12 43 14 107 1 24
5 31 14 26 9 -5 9 -4 0 6 -7 8 -9 20 -4 29 4 9 8 79 7 156 l-1 140 -158 0
c-87 1 -159 0 -160 -1z"/>
<path d="M2930 2559 c0 -5 5 -7 10 -4 6 3 10 8 10 11 0 2 -4 4 -10 4 -5 0 -10
-5 -10 -11z"/>
<path d="M2871 2407 c-13 -21 -12 -21 5 -5 10 10 16 20 13 22 -3 3 -11 -5 -18
-17z"/>
<path d="M2815 2299 c-3 -4 2 -6 10 -5 21 3 28 13 10 13 -9 0 -18 -4 -20 -8z"/>
<path d="M2811 2264 c0 -11 3 -14 6 -6 3 7 2 16 -1 19 -3 4 -6 -2 -5 -13z"/>
<path d="M2835 2271 c-3 -5 -2 -12 3 -15 5 -3 9 1 9 9 0 17 -3 19 -12 6z"/>
<path d="M2819 2228 c15 -21 31 -23 31 -6 0 6 -3 8 -7 5 -3 -4 -13 -1 -22 6
-14 11 -14 10 -2 -5z"/>
<path d="M2755 2200 c-3 -5 -1 -10 4 -10 6 0 11 5 11 10 0 6 -2 10 -4 10 -3 0
-8 -4 -11 -10z"/>
<path d="M2713 2123 c4 -6 2 -13 -5 -15 -8 -3 -6 -6 4 -10 17 -7 19 15 3 29
-4 4 -5 3 -2 -4z"/>
<path d="M2810 2120 c0 -5 5 -10 11 -10 5 0 7 5 4 10 -3 6 -8 10 -11 10 -2 0
-4 -4 -4 -10z"/>
<path d="M2773 2095 c0 -8 4 -12 9 -9 4 3 8 9 8 15 0 5 -4 9 -8 9 -5 0 -9 -7
-9 -15z"/>
<path d="M2806 2082 c-3 -5 1 -9 9 -9 8 0 12 4 9 9 -3 4 -7 8 -9 8 -2 0 -6 -4
-9 -8z"/>
<path d="M2730 2070 c-9 -6 -10 -10 -3 -10 6 0 15 5 18 10 8 12 4 12 -15 0z"/>
<path d="M2674 2061 c4 -5 1 -12 -4 -14 -6 -3 -5 -4 2 -3 15 3 23 26 8 26 -6
0 -9 -4 -6 -9z"/>
<path d="M2745 2040 c-3 -6 1 -7 9 -4 18 7 21 14 7 14 -6 0 -13 -4 -16 -10z"/>
<path d="M2634 1989 c1 -7 10 -13 19 -15 9 -1 15 2 11 7 -3 5 -9 7 -14 4 -4
-3 -11 0 -13 5 -3 6 -4 5 -3 -1z"/>
<path d="M2605 1979 c-4 -6 -5 -12 -2 -15 2 -3 7 2 10 11 7 17 1 20 -8 4z"/>
<path d="M2705 1960 c-3 -6 1 -7 9 -4 18 7 21 14 7 14 -6 0 -13 -4 -16 -10z"/>
<path d="M2660 1952 c0 -6 5 -14 10 -17 6 -4 7 -11 4 -17 -4 -7 -2 -8 5 -4 9
6 9 12 -1 24 -7 10 -14 19 -15 21 -2 2 -3 -1 -3 -7z"/>
<path d="M2580 1939 c0 -5 5 -7 10 -4 6 3 10 8 10 11 0 2 -4 4 -10 4 -5 0 -10
-5 -10 -11z"/>
<path d="M2610 1938 c0 -11 12 -10 30 2 12 7 10 9 -8 7 -12 0 -22 -5 -22 -9z"/>
<path d="M2555 1920 c-3 -5 -1 -10 4 -10 6 0 11 5 11 10 0 6 -2 10 -4 10 -3 0
-8 -4 -11 -10z"/>
<path d="M2734 1916 c1 -8 5 -18 8 -22 4 -3 5 1 4 10 -1 8 -5 18 -8 22 -4 3
-5 -1 -4 -10z"/>
<path d="M2580 1898 c0 -6 3 -8 7 -5 3 4 12 -1 20 -11 13 -15 13 -15 3 6 -11
23 -30 30 -30 10z"/>
<path d="M2786 1898 c3 -5 10 -6 15 -3 13 9 11 12 -6 12 -8 0 -12 -4 -9 -9z"/>
<path d="M2536 1883 c-6 -14 -5 -15 5 -6 7 7 10 15 7 18 -3 3 -9 -2 -12 -12z"/>
<path d="M2556 1873 c-6 -14 -5 -15 5 -6 7 7 10 15 7 18 -3 3 -9 -2 -12 -12z"/>
<path d="M2502 1820 c-11 -19 1 -40 15 -26 4 3 1 6 -7 6 -10 0 -10 3 0 15 7 9
11 17 9 20 -3 2 -10 -4 -17 -15z"/>
<path d="M2646 1802 c-3 -5 1 -9 9 -9 8 0 12 4 9 9 -3 4 -7 8 -9 8 -2 0 -6 -4
-9 -8z"/>
<path d="M2571 1784 c0 -11 3 -14 6 -6 3 7 2 16 -1 19 -3 4 -6 -2 -5 -13z"/>
<path d="M2436 1775 c4 -8 8 -15 10 -15 2 0 4 7 4 15 0 8 -4 15 -10 15 -5 0
-7 -7 -4 -15z"/>
<path d="M2470 1769 c13 -23 22 -26 14 -4 -5 11 -2 14 12 9 11 -4 16 -4 13 0
-4 4 -16 8 -28 11 -18 3 -20 1 -11 -16z"/>
<path d="M2526 1781 c-3 -5 1 -11 9 -14 9 -4 12 -1 8 9 -6 16 -10 17 -17 5z"/>
<path d="M2436 1739 c2 -4 -3 -10 -12 -13 -8 -3 -12 -10 -9 -16 3 -5 2 -10 -2
-10 -5 0 -18 -7 -29 -16 -18 -15 -18 -15 3 -5 28 14 36 14 27 -1 -4 -6 -3 -8
4 -5 5 4 9 15 8 25 -2 9 8 25 22 34 24 16 24 17 5 15 -12 0 -20 -4 -17 -8z"/>
<path d="M2513 1736 c-3 -6 -3 -8 2 -4 4 4 13 3 20 -2 8 -7 12 -5 12 3 0 16
-25 18 -34 3z"/>
<path d="M2472 1731 c-11 -6 -9 -9 6 -13 15 -4 19 -2 15 8 -6 16 -4 16 -21 5z"/>
<path d="M2344 1695 c-18 -14 -18 -14 4 -8 12 3 22 9 22 14 0 12 -3 11 -26 -6z"/>
<path d="M2431 1667 c-13 -21 -12 -21 5 -5 10 10 16 20 13 22 -3 3 -11 -5 -18
-17z"/>
<path d="M2320 1661 c0 -14 38 -34 53 -27 7 2 5 5 -5 5 -9 1 -24 8 -32 17 -9
8 -16 11 -16 5z"/>
<path d="M2380 1660 c-9 -6 -10 -10 -3 -10 6 0 15 5 18 10 8 12 4 12 -15 0z"/>
<path d="M870 1640 c0 -5 7 -10 16 -10 8 0 12 -4 9 -10 -3 -5 -1 -10 4 -10 18
0 12 19 -9 30 -14 7 -20 7 -20 0z"/>
<path d="M853 1621 c2 -14 9 -27 15 -29 7 -2 9 -9 6 -14 -4 -7 -2 -8 4 -4 17
10 15 26 -4 26 -8 0 -13 4 -10 8 2 4 0 14 -5 22 -7 11 -8 9 -6 -9z"/>
<path d="M2405 1630 c-16 -7 -17 -9 -3 -9 9 -1 20 4 23 9 7 11 7 11 -20 0z"/>
<path d="M800 1610 c-6 -11 -8 -20 -6 -20 3 0 10 9 16 20 6 11 8 20 6 20 -3 0
-10 -9 -16 -20z"/>
<path d="M950 1622 c0 -4 9 -13 20 -20 23 -14 26 -7 6 14 -16 15 -26 18 -26 6z"/>
<path d="M1070 1626 c0 -2 8 -10 18 -17 15 -13 16 -12 3 4 -13 16 -21 21 -21
13z"/>
<path d="M2268 1618 c5 -5 16 -8 23 -6 8 3 3 7 -10 11 -17 4 -21 3 -13 -5z"/>
<path d="M2327 1611 c14 -17 43 -19 43 -4 0 3 -6 3 -14 0 -8 -3 -17 1 -20 9
-3 8 -10 14 -16 14 -5 0 -2 -9 7 -19z"/>
<path d="M2439 1628 c-5 -18 -6 -38 -1 -34 7 8 12 36 6 36 -2 0 -4 -1 -5 -2z"/>
<path d="M735 1610 c-3 -6 1 -7 9 -4 18 7 21 14 7 14 -6 0 -13 -4 -16 -10z"/>
<path d="M1050 1599 c0 -5 5 -7 10 -4 6 3 10 8 10 11 0 2 -4 4 -10 4 -5 0 -10
-5 -10 -11z"/>
<path d="M2250 1600 c0 -5 5 -10 11 -10 5 0 7 5 4 10 -3 6 -8 10 -11 10 -2 0
-4 -4 -4 -10z"/>
<path d="M2310 1601 c0 -6 4 -13 10 -16 6 -3 7 1 4 9 -7 18 -14 21 -14 7z"/>
<path d="M2380 1606 c0 -2 9 -6 20 -9 11 -3 18 -1 14 4 -5 9 -34 13 -34 5z"/>
<path d="M932 1584 c-7 -8 -8 -14 -3 -14 10 0 25 19 20 25 -2 1 -10 -3 -17
-11z"/>
<path d="M697 1571 c-10 -13 -10 -14 3 -5 8 6 23 10 32 9 10 -2 20 0 22 4 9
14 -45 6 -57 -8z"/>
<path d="M2205 1579 c-4 -6 -4 -13 -1 -16 3 -4 6 -1 6 6 0 7 5 9 12 5 7 -4 8
-3 4 4 -9 15 -13 15 -21 1z"/>
<path d="M2286 1575 c4 -8 8 -15 10 -15 2 0 4 7 4 15 0 8 -4 15 -10 15 -5 0
-7 -7 -4 -15z"/>
<path d="M2376 1578 c3 -5 10 -6 15 -3 13 9 11 12 -6 12 -8 0 -12 -4 -9 -9z"/>
<path d="M780 1576 c0 -2 7 -7 16 -10 8 -3 12 -2 9 4 -6 10 -25 14 -25 6z"/>
<path d="M838 1562 c13 -4 23 -11 22 -17 -1 -5 6 -11 14 -13 9 -2 16 1 16 7 0
6 -7 8 -15 4 -10 -3 -15 0 -13 8 2 8 -7 14 -22 16 -24 2 -24 2 -2 -5z"/>
<path d="M2275 1548 c4 -13 11 -27 16 -33 5 -5 4 5 -2 23 -12 36 -24 44 -14
10z"/>
<path d="M2310 1561 c0 -17 21 -24 33 -12 9 9 7 10 -7 5 -13 -5 -17 -4 -12 4
4 7 2 12 -3 12 -6 0 -11 -4 -11 -9z"/>
<path d="M2400 1560 c-9 -6 -10 -10 -3 -10 6 0 15 5 18 10 8 12 4 12 -15 0z"/>
<path d="M741 1544 c0 -11 3 -14 6 -6 3 7 2 16 -1 19 -3 4 -6 -2 -5 -13z"/>
<path d="M2170 1550 c0 -19 29 -22 52 -6 12 9 17 16 11 16 -7 0 -15 -4 -18
-10 -3 -5 -13 -10 -21 -10 -8 0 -12 5 -9 10 3 6 1 10 -4 10 -6 0 -11 -5 -11
-10z"/>
<path d="M816 1535 c4 -8 8 -15 10 -15 2 0 4 7 4 15 0 8 -4 15 -10 15 -5 0 -7
-7 -4 -15z"/>
<path d="M2359 1548 c-5 -18 -6 -38 -1 -34 7 8 12 36 6 36 -2 0 -4 -1 -5 -2z"/>
<path d="M794 1532 c3 -5 0 -13 -6 -15 -8 -3 -6 -6 5 -6 19 -1 23 14 5 25 -6
4 -8 3 -4 -4z"/>
<path d="M2231 1531 c-8 -5 -16 -17 -17 -25 -1 -9 2 -14 7 -10 5 3 7 10 4 15
-4 5 1 9 9 9 9 0 16 5 16 10 0 12 -1 12 -19 1z"/>
<path d="M705 1520 c-3 -6 1 -7 9 -4 18 7 21 14 7 14 -6 0 -13 -4 -16 -10z"/>
<path d="M2147 1516 c-3 -8 -16 -20 -28 -27 -20 -10 -21 -9 -15 7 6 15 5 17
-5 6 -11 -10 -9 -16 6 -30 11 -9 16 -13 12 -8 -3 5 1 15 11 22 13 9 19 9 25 1
6 -8 7 -6 3 6 -3 9 -1 17 4 17 6 0 10 5 10 10 0 15 -17 12 -23 -4z"/>
<path d="M724 1498 c-3 -4 5 -5 17 -3 30 6 36 14 9 12 -12 -1 -24 -5 -26 -9z"/>
<path d="M2185 1500 c3 -5 8 -10 11 -10 2 0 4 5 4 10 0 6 -5 10 -11 10 -5 0
-7 -4 -4 -10z"/>
<path d="M2310 1500 c0 -5 5 -10 11 -10 5 0 7 5 4 10 -3 6 -8 10 -11 10 -2 0
-4 -4 -4 -10z"/>
<path d="M613 1475 c0 -8 4 -12 9 -9 5 3 6 10 3 15 -9 13 -12 11 -12 -6z"/>
<path d="M790 1480 c14 -9 7 -14 -13 -11 -5 1 -6 -3 -2 -9 5 -8 11 -7 21 1 19
16 18 29 -3 29 -15 0 -16 -2 -3 -10z"/>
<path d="M2070 1485 c0 -5 5 -17 10 -25 5 -8 10 -10 10 -5 0 6 -5 17 -10 25
-5 8 -10 11 -10 5z"/>
<path d="M2175 1480 c6 -10 -6 -14 -35 -11 -13 2 -13 0 -1 -8 17 -11 55 5 46
20 -4 5 -8 9 -11 9 -3 0 -2 -4 1 -10z"/>
<path d="M2230 1479 c0 -5 5 -7 10 -4 6 3 10 8 10 11 0 2 -4 4 -10 4 -5 0 -10
-5 -10 -11z"/>
<path d="M2268 1483 c6 -2 9 -10 6 -15 -4 -7 -2 -8 5 -4 13 9 5 26 -12 25 -9
0 -8 -2 1 -6z"/>
<path d="M669 1463 c-13 -16 -12 -17 4 -4 9 7 17 15 17 17 0 8 -8 3 -21 -13z"/>
<path d="M2210 1471 c0 -6 4 -13 10 -16 6 -3 7 1 4 9 -7 18 -14 21 -14 7z"/>
<path d="M2047 1464 c7 -3 9 -13 6 -22 -5 -13 -3 -14 7 -5 14 13 5 33 -13 32
-9 0 -9 -2 0 -5z"/>
<path d="M2296 1453 c-6 -14 -5 -15 5 -6 7 7 10 15 7 18 -3 3 -9 -2 -12 -12z"/>
<path d="M2326 1458 c3 -5 10 -6 15 -3 13 9 11 12 -6 12 -8 0 -12 -4 -9 -9z"/>
<path d="M2190 1449 c0 -5 -5 -7 -12 -3 -7 4 -8 3 -4 -4 4 -6 13 -9 21 -6 8 4
12 10 9 15 -7 12 -14 11 -14 -2z"/>
<path d="M616 1442 c-3 -5 1 -9 9 -9 8 0 12 4 9 9 -3 4 -7 8 -9 8 -2 0 -6 -4
-9 -8z"/>
<path d="M2093 1433 c-3 -7 -8 -11 -12 -9 -4 3 -8 -5 -8 -17 -2 -19 0 -18 16
7 10 15 21 27 25 26 4 -1 12 1 19 3 6 3 1 4 -12 4 -13 -1 -26 -7 -28 -14z"/>
<path d="M2239 1433 c-13 -16 -12 -17 4 -4 9 7 17 15 17 17 0 8 -8 3 -21 -13z"/>
<path d="M750 1426 c0 -2 7 -7 16 -10 8 -3 12 -2 9 4 -6 10 -25 14 -25 6z"/>
<path d="M2130 1420 c0 -5 5 -10 10 -10 6 0 10 5 10 10 0 6 -4 10 -10 10 -5 0
-10 -4 -10 -10z"/>
<path d="M2273 1413 c0 -9 4 -10 14 -2 7 6 13 12 13 14 0 1 -6 2 -13 2 -8 0
-14 -6 -14 -14z"/>
<path d="M2110 1400 c0 -6 7 -10 15 -10 8 0 15 2 15 4 0 2 -7 6 -15 10 -8 3
-15 1 -15 -4z"/>
<path d="M2199 1408 c-6 -21 -5 -38 1 -38 5 0 8 9 7 20 -1 17 -5 26 -8 18z"/>
<path d="M2082 1384 c-7 -8 -8 -14 -3 -14 10 0 25 19 20 25 -2 1 -10 -3 -17
-11z"/>
<path d="M1310 1386 c0 -2 8 -10 18 -17 15 -13 16 -12 3 4 -13 16 -21 21 -21
13z"/>
<path d="M2030 1380 c0 -5 7 -7 15 -4 8 4 15 8 15 10 0 2 -7 4 -15 4 -8 0 -15
-4 -15 -10z"/>
<path d="M2156 1367 c3 -10 9 -15 12 -12 3 3 0 11 -7 18 -10 9 -11 8 -5 -6z"/>
<path d="M2233 1365 c0 -8 4 -12 9 -9 5 3 6 10 3 15 -9 13 -12 11 -12 -6z"/>
<path d="M2058 1343 c5 -21 7 -23 10 -9 2 10 0 22 -6 28 -6 6 -7 0 -4 -19z"/>
<path d="M2086 1343 c-6 -14 -5 -15 5 -6 7 7 10 15 7 18 -3 3 -9 -2 -12 -12z"/>
<path d="M2190 1356 c0 -2 8 -10 18 -17 15 -13 16 -12 3 4 -13 16 -21 21 -21
13z"/>
<path d="M1320 1340 c8 -5 20 -10 25 -10 6 0 3 5 -5 10 -8 5 -19 10 -25 10 -5
0 -3 -5 5 -10z"/>
<path d="M1314 1314 c18 -17 22 -39 6 -29 -5 3 -10 1 -10 -4 0 -18 19 -12 30
9 6 11 15 18 21 15 5 -4 9 -1 9 4 0 14 -17 14 -26 0 -5 -8 -10 -6 -16 5 -5 9
-14 16 -19 16 -6 0 -3 -7 5 -16z"/>
<path d="M2035 1309 c-4 -6 -5 -12 -2 -15 2 -3 7 2 10 11 7 17 1 20 -8 4z"/>
<path d="M2090 1316 c0 -2 8 -10 18 -17 15 -13 16 -12 3 4 -13 16 -21 21 -21
13z"/>
<path d="M2079 1298 c-5 -18 -6 -38 -1 -34 7 8 12 36 6 36 -2 0 -4 -1 -5 -2z"/>
<path d="M1330 1260 c-8 -5 -10 -10 -5 -10 6 0 17 5 25 10 8 5 11 10 5 10 -5
0 -17 -5 -25 -10z"/>
<path d="M1995 1261 c-3 -5 -2 -12 3 -15 5 -3 9 1 9 9 0 17 -3 19 -12 6z"/>
<path d="M1370 1251 c0 -5 5 -13 10 -16 6 -3 10 -2 10 4 0 5 -4 13 -10 16 -5
3 -10 2 -10 -4z"/>
<path d="M1286 1235 c-3 -9 3 -19 16 -26 15 -8 18 -8 14 0 -4 6 0 11 8 11 10
0 13 -6 9 -17 -5 -14 -3 -15 7 -6 19 17 2 36 -28 28 -22 -5 -24 -4 -13 9 8 9
9 16 3 16 -5 0 -12 -7 -16 -15z"/>
<path d="M1350 1245 c0 -5 5 -17 10 -25 5 -8 10 -10 10 -5 0 6 -5 17 -10 25
-5 8 -10 11 -10 5z"/>
<path d="M1270 1200 c0 -5 5 -10 11 -10 5 0 7 5 4 10 -3 6 -8 10 -11 10 -2 0
-4 -4 -4 -10z"/>
<path d="M1368 1197 c-9 -7 -13 -18 -10 -24 5 -7 12 -2 19 13 6 13 10 24 10
24 -1 0 -10 -6 -19 -13z"/>
<path d="M2027 1199 c7 -7 15 -10 18 -7 3 3 -2 9 -12 12 -14 6 -15 5 -6 -5z"/>
<path d="M1290 1180 c-9 -6 -10 -10 -3 -10 6 0 15 5 18 10 8 12 4 12 -15 0z"/>
<path d="M1255 1170 c-3 -6 1 -13 9 -16 9 -3 14 -10 11 -14 -3 -5 0 -12 6 -16
8 -4 9 -3 5 4 -4 7 -1 12 6 12 7 1 3 6 -10 13 -12 7 -19 16 -16 20 4 4 5 7 1
7 -3 0 -9 -5 -12 -10z"/>
<path d="M1317 1173 c-10 -9 -9 -23 1 -23 5 0 9 7 9 15 0 17 -1 18 -10 8z"/>
<path d="M1235 1141 c-3 -6 5 -15 17 -21 21 -10 21 -10 6 3 -10 8 -15 17 -11
20 3 4 4 7 0 7 -3 0 -8 -4 -12 -9z"/>
<path d="M1181 1108 c-1 -20 14 -24 25 -6 4 6 3 8 -4 4 -5 -3 -13 0 -15 6 -3
8 -6 6 -6 -4z"/>
<path d="M1156 1087 c3 -10 9 -15 12 -12 3 3 0 11 -7 18 -10 9 -11 8 -5 -6z"/>
<path d="M1273 1075 c0 -7 8 -17 17 -23 12 -7 17 -7 17 4 0 7 -5 10 -10 7 -6
-4 -8 0 -5 9 4 8 1 15 -6 15 -7 0 -13 -6 -13 -12z"/>
<path d="M1187 1047 c-3 -7 3 -13 13 -13 10 0 16 6 13 13 -3 7 -9 13 -13 13
-4 0 -10 -6 -13 -13z"/>
<path d="M1150 1033 c5 -2 8 -9 5 -13 -3 -5 -1 -11 4 -14 5 -4 8 2 7 11 -2 9
-8 18 -15 19 -6 1 -7 0 -1 -3z"/>
<path d="M1233 1026 c0 -8 7 -13 16 -11 9 1 25 -5 36 -14 20 -16 20 -16 1 7
-11 12 -21 20 -24 17 -3 -3 -10 0 -17 5 -8 7 -12 5 -12 -4z"/>
<path d="M1954 1029 c-3 -6 -2 -15 3 -20 5 -5 9 -1 9 11 0 23 -2 24 -12 9z"/>
<path d="M1050 1020 c0 -5 5 -10 10 -10 6 0 10 5 10 10 0 6 -4 10 -10 10 -5 0
-10 -4 -10 -10z"/>
<path d="M1086 1022 c-3 -5 1 -9 9 -9 8 0 15 4 15 9 0 4 -4 8 -9 8 -6 0 -12
-4 -15 -8z"/>
<path d="M1986 1018 c3 -5 10 -6 15 -3 13 9 11 12 -6 12 -8 0 -12 -4 -9 -9z"/>
<path d="M1120 1000 c-8 -5 -11 -13 -6 -17 5 -4 11 -2 13 5 3 6 10 9 15 6 7
-4 8 -2 4 4 -9 14 -7 14 -26 2z"/>
<path d="M1190 1001 c14 -10 7 -16 -15 -11 -5 1 -6 -2 -2 -6 4 -4 14 -9 21
-10 18 -3 13 29 -5 34 -11 3 -11 1 1 -7z"/>
<path d="M1001 984 c0 -11 3 -14 6 -6 3 7 2 16 -1 19 -3 4 -6 -2 -5 -13z"/>
<path d="M1030 990 c0 -5 5 -10 10 -10 6 0 10 5 10 10 0 6 -4 10 -10 10 -5 0
-10 -4 -10 -10z"/>
<path d="M1070 985 c0 -8 4 -15 10 -15 5 0 7 7 4 15 -4 8 -8 15 -10 15 -2 0
-4 -7 -4 -15z"/>
<path d="M1822 980 c0 -14 2 -19 5 -12 2 6 2 18 0 25 -3 6 -5 1 -5 -13z"/>
<path d="M1873 993 c-17 -6 -17 -20 0 -20 8 0 14 6 14 14 0 7 -1 13 -1 12 -1
0 -7 -3 -13 -6z"/>
<path d="M977 973 c-4 -3 -7 -11 -7 -17 0 -6 5 -5 12 2 6 6 9 14 7 17 -3 3 -9
2 -12 -2z"/>
<path d="M1015 962 c-3 -3 -5 -10 -5 -16 0 -7 3 -7 8 -1 4 6 14 10 22 10 8 0
19 -4 23 -10 5 -6 7 -4 5 4 -4 14 -43 23 -53 13z"/>
<path d="M1279 953 c-13 -16 -12 -17 4 -4 16 13 21 21 13 21 -2 0 -10 -8 -17
-17z"/>
<path d="M1775 960 c-3 -5 -3 -10 2 -10 4 -1 -3 -7 -16 -14 -14 -7 -26 -23
-28 -34 -3 -24 12 -38 23 -21 4 7 3 9 -4 5 -6 -4 -10 1 -9 13 0 11 12 24 25
30 14 7 20 16 16 23 -5 8 -2 9 9 5 10 -3 17 -2 17 3 0 13 -27 13 -35 0z"/>
<path d="M1930 959 c0 -5 5 -7 10 -4 6 3 10 8 10 11 0 2 -4 4 -10 4 -5 0 -10
-5 -10 -11z"/>
<path d="M991 934 c0 -11 3 -14 6 -6 3 7 2 16 -1 19 -3 4 -6 -2 -5 -13z"/>
<path d="M1095 940 c-3 -6 1 -7 9 -4 18 7 21 14 7 14 -6 0 -13 -4 -16 -10z"/>
<path d="M1710 940 c0 -5 5 -10 11 -10 5 0 7 5 4 10 -3 6 -8 10 -11 10 -2 0
-4 -4 -4 -10z"/>
<path d="M1815 939 c-4 -6 -5 -12 -2 -15 2 -3 7 2 10 11 7 17 1 20 -8 4z"/>
<path d="M948 933 c10 -4 9 -9 -4 -24 -9 -10 -14 -19 -9 -19 9 0 34 31 35 43
0 4 -8 7 -17 6 -12 0 -13 -2 -5 -6z"/>
<path d="M1933 925 c0 -8 4 -12 9 -9 5 3 6 10 3 15 -9 13 -12 11 -12 -6z"/>
<path d="M910 920 c0 -5 5 -10 10 -10 6 0 10 5 10 10 0 6 -4 10 -10 10 -5 0
-10 -4 -10 -10z"/>
<path d="M1014 922 c3 -5 0 -13 -6 -15 -9 -4 -10 -6 -1 -6 17 -1 25 16 12 25
-7 4 -9 3 -5 -4z"/>
<path d="M1070 921 c0 -6 4 -13 10 -16 6 -3 7 1 4 9 -7 18 -14 21 -14 7z"/>
<path d="M1042 904 c-7 -8 -8 -14 -3 -14 10 0 25 19 20 25 -2 1 -10 -3 -17
-11z"/>
<path d="M970 900 c0 -5 5 -10 10 -10 6 0 10 5 10 10 0 6 -4 10 -10 10 -5 0
-10 -4 -10 -10z"/>
<path d="M1674 899 c2 -15 20 -13 24 3 3 10 2 10 -6 -1 -7 -9 -11 -10 -15 -2
-4 7 -5 8 -3 0z"/>
<path d="M1790 890 c0 -5 5 -10 11 -10 5 0 7 5 4 10 -3 6 -8 10 -11 10 -2 0
-4 -4 -4 -10z"/>
<path d="M850 880 c-9 -6 -10 -10 -3 -10 6 0 15 5 18 10 8 12 4 12 -15 0z"/>
<path d="M1014 882 c3 -5 2 -12 -4 -14 -5 -2 -6 -9 -1 -16 6 -10 10 -9 14 7 3
12 0 24 -5 28 -6 3 -8 1 -4 -5z"/>
<path d="M1115 870 c10 -11 20 -20 23 -20 3 0 -3 9 -13 20 -10 11 -20 20 -23
20 -3 0 3 -9 13 -20z"/>
<path d="M1250 880 c0 -5 5 -10 11 -10 5 0 7 5 4 10 -3 6 -8 10 -11 10 -2 0
-4 -4 -4 -10z"/>
<path d="M1593 871 c-12 -19 0 -52 14 -37 4 5 2 11 -5 13 -10 4 -10 8 -1 19 7
8 10 16 8 19 -3 2 -10 -4 -16 -14z"/>
<path d="M1710 881 c0 -6 4 -13 10 -16 6 -3 7 1 4 9 -7 18 -14 21 -14 7z"/>
<path d="M955 870 c3 -5 8 -10 11 -10 2 0 4 5 4 10 0 6 -5 10 -11 10 -5 0 -7
-4 -4 -10z"/>
<path d="M873 863 c4 -3 -1 -11 -10 -18 -13 -9 -13 -14 -3 -20 8 -5 11 -4 7 2
-4 6 0 13 8 17 18 6 20 26 3 26 -6 0 -8 -3 -5 -7z"/>
<path d="M1064 862 c4 -3 14 -7 22 -8 9 -1 13 0 10 4 -4 3 -14 7 -22 8 -9 1
-13 0 -10 -4z"/>
<path d="M1620 860 c0 -5 5 -10 10 -10 6 0 10 5 10 10 0 6 -4 10 -10 10 -5 0
-10 -4 -10 -10z"/>
<path d="M1690 863 c17 -8 11 -19 -10 -20 -13 -1 -18 2 -14 9 4 7 2 8 -5 4
-17 -11 -3 -26 22 -22 24 3 31 28 9 32 -7 1 -8 0 -2 -3z"/>
<path d="M1752 861 c-11 -6 -10 -10 4 -15 9 -3 19 -4 22 -1 3 3 0 5 -7 5 -7 0
-9 5 -6 10 7 12 4 12 -13 1z"/>
<path d="M1830 861 c0 -6 4 -12 8 -15 5 -3 9 1 9 9 0 8 -4 15 -9 15 -4 0 -8
-4 -8 -9z"/>
<path d="M1173 845 c0 -8 4 -12 9 -9 5 3 6 10 3 15 -9 13 -12 11 -12 -6z"/>
<path d="M1535 850 c6 -10 4 -12 -8 -7 -10 3 -17 2 -17 -3 0 -13 27 -13 35 -1
3 5 0 13 -6 17 -8 5 -9 3 -4 -6z"/>
<path d="M775 840 c3 -5 8 -10 11 -10 2 0 4 5 4 10 0 6 -5 10 -11 10 -5 0 -7
-4 -4 -10z"/>
<path d="M934 838 c-4 -7 -4 -10 1 -6 4 4 14 0 22 -10 13 -15 13 -15 3 6 -12
25 -16 27 -26 10z"/>
<path d="M1716 833 c-6 -14 -5 -15 5 -6 7 7 10 15 7 18 -3 3 -9 -2 -12 -12z"/>
<path d="M1890 840 c0 -5 5 -10 11 -10 5 0 7 5 4 10 -3 6 -8 10 -11 10 -2 0
-4 -4 -4 -10z"/>
<path d="M833 821 c0 -11 5 -18 9 -15 4 3 5 11 1 19 -7 21 -12 19 -10 -4z"/>
<path d="M1233 825 c0 -8 4 -12 9 -9 5 3 6 10 3 15 -9 13 -12 11 -12 -6z"/>
<path d="M767 819 c7 -7 15 -10 18 -7 3 3 -2 9 -12 12 -14 6 -15 5 -6 -5z"/>
<path d="M1473 814 c0 -7 6 -15 13 -18 9 -3 11 1 7 11 -5 12 -3 14 8 8 8 -5
11 -4 6 0 -13 14 -34 14 -34 -1z"/>
<path d="M1541 820 c-9 -5 -4 -7 13 -7 29 0 32 2 13 10 -8 3 -20 2 -26 -3z"/>
<path d="M1620 826 c0 -2 7 -6 15 -10 8 -3 15 -1 15 4 0 6 -7 10 -15 10 -8 0
-15 -2 -15 -4z"/>
<path d="M1749 806 c-9 -19 -9 -19 4 -4 8 10 16 15 19 12 4 -3 8 -1 12 4 3 5
-2 9 -10 9 -8 0 -20 -10 -25 -21z"/>
<path d="M990 811 c0 -5 7 -12 16 -15 14 -5 15 -4 4 9 -14 17 -20 19 -20 6z"/>
<path d="M1595 809 c-4 -6 -5 -12 -2 -15 2 -3 7 2 10 11 7 17 1 20 -8 4z"/>
<path d="M1668 808 c-13 -10 -15 -17 -7 -28 9 -12 10 -12 5 4 -5 15 -2 17 14
13 11 -3 23 0 27 5 3 6 1 8 -5 4 -5 -3 -12 -1 -14 4 -2 7 -9 6 -20 -2z"/>
<path d="M854 799 c-3 -6 -1 -16 5 -22 9 -9 10 -7 5 7 -6 15 -4 17 6 11 9 -5
11 -4 6 3 -9 15 -13 15 -22 1z"/>
<path d="M913 791 c-1 -11 6 -26 15 -33 15 -11 15 -11 4 3 -7 9 -10 24 -6 33
3 9 2 16 -3 16 -5 0 -9 -9 -10 -19z"/>
<path d="M1090 799 c0 -5 5 -7 10 -4 6 3 10 8 10 11 0 2 -4 4 -10 4 -5 0 -10
-5 -10 -11z"/>
<path d="M1617 803 c-12 -12 -7 -22 16 -33 20 -10 20 -10 5 3 -20 16 -25 32
-6 21 7 -4 8 -3 4 4 -8 14 -10 14 -19 5z"/>
<path d="M718 793 c7 -3 16 -2 19 1 4 3 -2 6 -13 5 -11 0 -14 -3 -6 -6z"/>
<path d="M754 783 c2 -9 8 -18 15 -19 6 -1 7 0 1 3 -5 2 -8 9 -5 13 3 5 1 11
-4 14 -5 4 -8 -2 -7 -11z"/>
<path d="M1514 789 c-3 -6 -1 -16 4 -21 8 -8 11 -5 9 11 -1 24 -3 25 -13 10z"/>
<path d="M1550 798 c0 -2 9 -11 20 -21 11 -9 20 -13 20 -7 0 5 -9 14 -20 20
-11 6 -20 9 -20 8z"/>
<path d="M1426 778 c3 -5 10 -6 15 -3 13 9 11 12 -6 12 -8 0 -12 -4 -9 -9z"/>
<path d="M790 776 c0 -2 6 -9 14 -15 11 -9 16 -9 22 0 4 8 3 9 -4 5 -7 -4 -12
-2 -12 3 0 6 -4 11 -10 11 -5 0 -10 -2 -10 -4z"/>
<path d="M1053 765 c0 -8 4 -12 9 -9 5 3 6 10 3 15 -9 13 -12 11 -12 -6z"/>
<path d="M659 768 c-7 -23 -4 -35 7 -35 9 0 11 4 4 12 -5 7 -7 15 -3 18 3 4 3
7 0 7 -4 0 -7 -1 -8 -2z"/>
<path d="M1440 760 c-9 -6 -10 -10 -3 -10 6 0 15 5 18 10 8 12 4 12 -15 0z"/>
<path d="M1475 763 c3 -3 0 -11 -5 -18 -7 -8 -5 -12 4 -12 14 0 16 22 3 32 -4
3 -5 2 -2 -2z"/>
<path d="M1556 753 c-6 -14 -5 -15 5 -6 7 7 10 15 7 18 -3 3 -9 -2 -12 -12z"/>
<path d="M1596 755 c-9 -26 -7 -32 5 -12 6 10 9 21 6 23 -2 3 -7 -2 -11 -11z"/>
<path d="M1711 748 c5 -10 12 -18 15 -18 3 0 2 5 -2 11 -3 6 0 15 7 20 10 6 8
8 -8 6 -17 -1 -20 -5 -12 -19z"/>
<path d="M1785 760 c-3 -6 1 -7 9 -4 18 7 21 14 7 14 -6 0 -13 -4 -16 -10z"/>
<path d="M1870 761 c0 -6 4 -13 10 -16 6 -3 7 1 4 9 -7 18 -14 21 -14 7z"/>
<path d="M708 753 c7 -3 16 -2 19 1 4 3 -2 6 -13 5 -11 0 -14 -3 -6 -6z"/>
<path d="M766 738 c3 -5 10 -6 15 -3 13 9 11 12 -6 12 -8 0 -12 -4 -9 -9z"/>
<path d="M830 739 c0 -5 5 -7 10 -4 6 3 10 8 10 11 0 2 -4 4 -10 4 -5 0 -10
-5 -10 -11z"/>
<path d="M893 733 c0 -9 4 -10 14 -2 7 6 13 12 13 14 0 1 -6 2 -13 2 -8 0 -14
-6 -14 -14z"/>
<path d="M710 736 c0 -2 9 -6 20 -9 11 -3 18 -1 14 4 -5 9 -34 13 -34 5z"/>
<path d="M1753 725 c0 -8 4 -12 9 -9 5 3 6 10 3 15 -9 13 -12 11 -12 -6z"/>
<path d="M685 719 c-4 -6 -14 -8 -24 -4 -13 5 -14 4 -3 -6 10 -11 15 -10 29 4
10 9 14 17 11 17 -4 0 -10 -5 -13 -11z"/>
<path d="M793 709 c-2 -23 3 -25 10 -4 4 8 3 16 -1 19 -4 3 -9 -4 -9 -15z"/>
<path d="M970 719 c0 -5 5 -7 10 -4 6 3 10 8 10 11 0 2 -4 4 -10 4 -5 0 -10
-5 -10 -11z"/>
<path d="M1548 723 c7 -3 16 -2 19 1 4 3 -2 6 -13 5 -11 0 -14 -3 -6 -6z"/>
<path d="M1642 718 c-15 -15 -15 -28 0 -28 6 0 8 3 5 7 -4 3 -2 12 4 20 14 16
7 17 -9 1z"/>
<path d="M1455 709 c-4 -6 -5 -12 -2 -15 2 -3 7 2 10 11 7 17 1 20 -8 4z"/>
<path d="M1494 706 c1 -8 5 -18 8 -22 4 -3 5 1 4 10 -1 8 -5 18 -8 22 -4 3 -5
-1 -4 -10z"/>
<path d="M695 699 c-4 -6 -4 -13 -1 -16 3 -4 6 -1 6 7 0 10 4 10 18 -1 15 -13
16 -12 3 4 -16 20 -18 20 -26 6z"/>
<path d="M913 695 c0 -8 4 -12 9 -9 5 3 6 10 3 15 -9 13 -12 11 -12 -6z"/>
<path d="M1537 691 c-10 -14 -10 -14 4 -4 9 7 18 10 21 7 3 -3 8 -1 12 4 9 16
-24 9 -37 -7z"/>
<path d="M1635 669 c-4 -6 -5 -12 -2 -15 2 -3 7 2 10 11 7 17 1 20 -8 4z"/>
<path d="M600 660 c-9 -6 -10 -10 -3 -10 6 0 15 5 18 10 8 12 4 12 -15 0z"/>
<path d="M690 661 c0 -6 4 -13 10 -16 6 -3 7 1 4 9 -7 18 -14 21 -14 7z"/>
<path d="M716 659 c4 -8 30 -6 38 2 3 3 -5 5 -19 5 -13 0 -22 -3 -19 -7z"/>
<path d="M816 662 c-3 -5 1 -9 9 -9 8 0 12 4 9 9 -3 4 -7 8 -9 8 -2 0 -6 -4
-9 -8z"/>
<path d="M890 660 c0 -5 5 -10 11 -10 5 0 7 5 4 10 -3 6 -8 10 -11 10 -2 0 -4
-4 -4 -10z"/>
<path d="M1375 660 c-3 -5 -1 -10 4 -10 6 0 11 5 11 10 0 6 -2 10 -4 10 -3 0
-8 -4 -11 -10z"/>
<path d="M1595 609 c-4 -6 -5 -12 -2 -15 2 -3 7 2 10 11 7 17 1 20 -8 4z"/>
<path d="M626 598 c3 -5 10 -6 15 -3 13 9 11 12 -6 12 -8 0 -12 -4 -9 -9z"/>
<path d="M660 605 c0 -2 6 -8 13 -14 10 -8 14 -7 14 2 0 8 -6 14 -14 14 -7 0
-13 -1 -13 -2z"/>
<path d="M815 599 c-3 -4 2 -6 10 -5 21 3 28 13 10 13 -9 0 -18 -4 -20 -8z"/>
<path d="M1446 602 c-3 -5 1 -9 9 -9 8 0 12 4 9 9 -3 4 -7 8 -9 8 -2 0 -6 -4
-9 -8z"/>
<path d="M1496 598 c3 -5 10 -6 15 -3 13 9 11 12 -6 12 -8 0 -12 -4 -9 -9z"/>
<path d="M575 589 c-4 -6 -5 -12 -2 -15 2 -3 7 2 10 11 7 17 1 20 -8 4z"/>
<path d="M595 581 c-3 -5 -2 -12 3 -15 5 -3 9 1 9 9 0 17 -3 19 -12 6z"/>
<path d="M631 567 c-8 -10 -7 -14 2 -14 8 0 14 6 14 14 0 7 -1 13 -2 13 -2 0
-8 -6 -14 -13z"/>
<path d="M755 571 c-3 -5 -2 -12 3 -15 5 -3 9 1 9 9 0 17 -3 19 -12 6z"/>
<path d="M490 520 c0 -5 5 -10 11 -10 5 0 7 5 4 10 -3 6 -8 10 -11 10 -2 0 -4
-4 -4 -10z"/>
<path d="M535 480 c3 -5 8 -10 11 -10 2 0 4 5 4 10 0 6 -5 10 -11 10 -5 0 -7
-4 -4 -10z"/>
</g>
</svg>
